<mxfile host="app.diagrams.net" agent="Mozilla/5.0 (Windows NT 10.0; Win64; x64; rv:133.0) Gecko/20100101 Firefox/133.0" version="25.0.3">
  <diagram name="Sayfa -1" id="Y4KyMQlFS_LneCHq2ve7">
    <mxGraphModel dx="1434" dy="1915" grid="1" gridSize="10" guides="1" tooltips="1" connect="1" arrows="1" fold="1" page="1" pageScale="1" pageWidth="827" pageHeight="1169" math="0" shadow="0">
      <root>
        <mxCell id="0" />
        <mxCell id="1" parent="0" />
        <mxCell id="thV8qUcvfwIhAkpE8thV-68" style="edgeStyle=orthogonalEdgeStyle;rounded=0;orthogonalLoop=1;jettySize=auto;html=1;entryX=0.5;entryY=0;entryDx=0;entryDy=0;" edge="1" parent="1" source="xR32Q1sz5O_IzREnE2dy-1" target="thV8qUcvfwIhAkpE8thV-67">
          <mxGeometry relative="1" as="geometry" />
        </mxCell>
        <mxCell id="xR32Q1sz5O_IzREnE2dy-1" value="BAŞLA" style="strokeWidth=2;html=1;shape=mxgraph.flowchart.start_1;whiteSpace=wrap;" parent="1" vertex="1">
          <mxGeometry x="350" y="-100" width="100" height="60" as="geometry" />
        </mxCell>
        <mxCell id="xR32Q1sz5O_IzREnE2dy-8" style="edgeStyle=orthogonalEdgeStyle;rounded=0;orthogonalLoop=1;jettySize=auto;html=1;entryX=0.5;entryY=0;entryDx=0;entryDy=0;" parent="1" source="xR32Q1sz5O_IzREnE2dy-2" target="xR32Q1sz5O_IzREnE2dy-3" edge="1">
          <mxGeometry relative="1" as="geometry" />
        </mxCell>
        <mxCell id="xR32Q1sz5O_IzREnE2dy-9" style="edgeStyle=orthogonalEdgeStyle;rounded=0;orthogonalLoop=1;jettySize=auto;html=1;entryX=0.5;entryY=0;entryDx=0;entryDy=0;" parent="1" source="xR32Q1sz5O_IzREnE2dy-2" target="xR32Q1sz5O_IzREnE2dy-4" edge="1">
          <mxGeometry relative="1" as="geometry" />
        </mxCell>
        <mxCell id="xR32Q1sz5O_IzREnE2dy-10" style="edgeStyle=orthogonalEdgeStyle;rounded=0;orthogonalLoop=1;jettySize=auto;html=1;entryX=0.5;entryY=0;entryDx=0;entryDy=0;" parent="1" source="xR32Q1sz5O_IzREnE2dy-2" target="xR32Q1sz5O_IzREnE2dy-5" edge="1">
          <mxGeometry relative="1" as="geometry" />
        </mxCell>
        <mxCell id="xR32Q1sz5O_IzREnE2dy-11" style="edgeStyle=orthogonalEdgeStyle;rounded=0;orthogonalLoop=1;jettySize=auto;html=1;entryX=0.5;entryY=0;entryDx=0;entryDy=0;" parent="1" source="xR32Q1sz5O_IzREnE2dy-2" target="xR32Q1sz5O_IzREnE2dy-6" edge="1">
          <mxGeometry relative="1" as="geometry" />
        </mxCell>
        <mxCell id="thV8qUcvfwIhAkpE8thV-3" style="edgeStyle=orthogonalEdgeStyle;rounded=0;orthogonalLoop=1;jettySize=auto;html=1;entryX=0.5;entryY=0;entryDx=0;entryDy=0;" edge="1" parent="1" source="xR32Q1sz5O_IzREnE2dy-2" target="thV8qUcvfwIhAkpE8thV-2">
          <mxGeometry relative="1" as="geometry" />
        </mxCell>
        <mxCell id="thV8qUcvfwIhAkpE8thV-4" style="edgeStyle=orthogonalEdgeStyle;rounded=0;orthogonalLoop=1;jettySize=auto;html=1;" edge="1" parent="1" source="xR32Q1sz5O_IzREnE2dy-2" target="thV8qUcvfwIhAkpE8thV-1">
          <mxGeometry relative="1" as="geometry" />
        </mxCell>
        <mxCell id="xR32Q1sz5O_IzREnE2dy-2" value="Ön işleme yap" style="html=1;dashed=0;whiteSpace=wrap;" parent="1" vertex="1">
          <mxGeometry x="360" y="170" width="100" height="50" as="geometry" />
        </mxCell>
        <mxCell id="xR32Q1sz5O_IzREnE2dy-17" style="edgeStyle=orthogonalEdgeStyle;rounded=0;orthogonalLoop=1;jettySize=auto;html=1;entryX=0;entryY=0;entryDx=0;entryDy=0;" parent="1" source="xR32Q1sz5O_IzREnE2dy-3" target="xR32Q1sz5O_IzREnE2dy-13" edge="1">
          <mxGeometry relative="1" as="geometry">
            <Array as="points">
              <mxPoint x="230" y="410" />
              <mxPoint x="570" y="410" />
              <mxPoint x="570" y="490" />
              <mxPoint x="460" y="490" />
            </Array>
          </mxGeometry>
        </mxCell>
        <mxCell id="xR32Q1sz5O_IzREnE2dy-3" value="sBert" style="html=1;dashed=0;whiteSpace=wrap;" parent="1" vertex="1">
          <mxGeometry x="180" y="290" width="100" height="50" as="geometry" />
        </mxCell>
        <mxCell id="xR32Q1sz5O_IzREnE2dy-16" style="edgeStyle=orthogonalEdgeStyle;rounded=0;orthogonalLoop=1;jettySize=auto;html=1;entryX=0.25;entryY=0;entryDx=0;entryDy=0;" parent="1" source="xR32Q1sz5O_IzREnE2dy-4" target="xR32Q1sz5O_IzREnE2dy-13" edge="1">
          <mxGeometry relative="1" as="geometry">
            <Array as="points">
              <mxPoint x="360" y="410" />
              <mxPoint x="570" y="410" />
              <mxPoint x="570" y="490" />
              <mxPoint x="515" y="490" />
            </Array>
          </mxGeometry>
        </mxCell>
        <mxCell id="xR32Q1sz5O_IzREnE2dy-20" style="edgeStyle=orthogonalEdgeStyle;rounded=0;orthogonalLoop=1;jettySize=auto;html=1;entryX=0.5;entryY=0;entryDx=0;entryDy=0;" parent="1" source="xR32Q1sz5O_IzREnE2dy-4" target="xR32Q1sz5O_IzREnE2dy-12" edge="1">
          <mxGeometry relative="1" as="geometry" />
        </mxCell>
        <mxCell id="xR32Q1sz5O_IzREnE2dy-4" value="AlBert" style="html=1;dashed=0;whiteSpace=wrap;" parent="1" vertex="1">
          <mxGeometry x="310" y="290" width="100" height="50" as="geometry" />
        </mxCell>
        <mxCell id="xR32Q1sz5O_IzREnE2dy-15" style="edgeStyle=orthogonalEdgeStyle;rounded=0;orthogonalLoop=1;jettySize=auto;html=1;entryX=0.5;entryY=0;entryDx=0;entryDy=0;" parent="1" source="xR32Q1sz5O_IzREnE2dy-5" target="xR32Q1sz5O_IzREnE2dy-13" edge="1">
          <mxGeometry relative="1" as="geometry">
            <Array as="points">
              <mxPoint x="494" y="410" />
              <mxPoint x="570" y="410" />
            </Array>
          </mxGeometry>
        </mxCell>
        <mxCell id="xR32Q1sz5O_IzREnE2dy-5" value="Bert" style="html=1;dashed=0;whiteSpace=wrap;" parent="1" vertex="1">
          <mxGeometry x="443.5" y="290" width="100" height="50" as="geometry" />
        </mxCell>
        <mxCell id="xR32Q1sz5O_IzREnE2dy-18" style="edgeStyle=orthogonalEdgeStyle;rounded=0;orthogonalLoop=1;jettySize=auto;html=1;entryX=0.5;entryY=0;entryDx=0;entryDy=0;" parent="1" source="xR32Q1sz5O_IzREnE2dy-6" target="xR32Q1sz5O_IzREnE2dy-13" edge="1">
          <mxGeometry relative="1" as="geometry">
            <Array as="points">
              <mxPoint x="630" y="410" />
              <mxPoint x="570" y="410" />
            </Array>
          </mxGeometry>
        </mxCell>
        <mxCell id="xR32Q1sz5O_IzREnE2dy-6" value="Roberta" style="html=1;dashed=0;whiteSpace=wrap;" parent="1" vertex="1">
          <mxGeometry x="580" y="290" width="100" height="50" as="geometry" />
        </mxCell>
        <mxCell id="xR32Q1sz5O_IzREnE2dy-31" style="edgeStyle=orthogonalEdgeStyle;rounded=0;orthogonalLoop=1;jettySize=auto;html=1;" parent="1" source="xR32Q1sz5O_IzREnE2dy-12" edge="1">
          <mxGeometry relative="1" as="geometry">
            <mxPoint x="370" y="855" as="targetPoint" />
          </mxGeometry>
        </mxCell>
        <mxCell id="xR32Q1sz5O_IzREnE2dy-12" value="K-Means" style="html=1;dashed=0;whiteSpace=wrap;" parent="1" vertex="1">
          <mxGeometry x="295" y="765" width="150" height="40" as="geometry" />
        </mxCell>
        <mxCell id="thV8qUcvfwIhAkpE8thV-22" value="" style="edgeStyle=orthogonalEdgeStyle;rounded=0;orthogonalLoop=1;jettySize=auto;html=1;" edge="1" parent="1" source="xR32Q1sz5O_IzREnE2dy-13" target="thV8qUcvfwIhAkpE8thV-21">
          <mxGeometry relative="1" as="geometry" />
        </mxCell>
        <mxCell id="xR32Q1sz5O_IzREnE2dy-13" value="Vektör Birleştir" style="html=1;dashed=0;whiteSpace=wrap;" parent="1" vertex="1">
          <mxGeometry x="470" y="500" width="220" height="40" as="geometry" />
        </mxCell>
        <mxCell id="xR32Q1sz5O_IzREnE2dy-19" style="edgeStyle=orthogonalEdgeStyle;rounded=0;orthogonalLoop=1;jettySize=auto;html=1;entryX=0.35;entryY=-0.1;entryDx=0;entryDy=0;entryPerimeter=0;" parent="1" source="xR32Q1sz5O_IzREnE2dy-3" target="xR32Q1sz5O_IzREnE2dy-12" edge="1">
          <mxGeometry relative="1" as="geometry">
            <Array as="points">
              <mxPoint x="230" y="480" />
              <mxPoint x="345" y="480" />
            </Array>
          </mxGeometry>
        </mxCell>
        <mxCell id="xR32Q1sz5O_IzREnE2dy-21" style="edgeStyle=orthogonalEdgeStyle;rounded=0;orthogonalLoop=1;jettySize=auto;html=1;entryX=0.66;entryY=-0.1;entryDx=0;entryDy=0;entryPerimeter=0;" parent="1" source="xR32Q1sz5O_IzREnE2dy-5" target="xR32Q1sz5O_IzREnE2dy-12" edge="1">
          <mxGeometry relative="1" as="geometry">
            <Array as="points">
              <mxPoint x="494" y="460" />
              <mxPoint x="376" y="460" />
            </Array>
          </mxGeometry>
        </mxCell>
        <mxCell id="xR32Q1sz5O_IzREnE2dy-22" style="edgeStyle=orthogonalEdgeStyle;rounded=0;orthogonalLoop=1;jettySize=auto;html=1;entryX=0.883;entryY=-0.05;entryDx=0;entryDy=0;entryPerimeter=0;" parent="1" source="xR32Q1sz5O_IzREnE2dy-6" target="xR32Q1sz5O_IzREnE2dy-12" edge="1">
          <mxGeometry relative="1" as="geometry">
            <Array as="points">
              <mxPoint x="630" y="470" />
              <mxPoint x="398" y="470" />
            </Array>
          </mxGeometry>
        </mxCell>
        <mxCell id="xR32Q1sz5O_IzREnE2dy-25" value="&lt;div&gt;ABD=32&lt;span style=&quot;white-space: pre;&quot;&gt;&#x9;&lt;/span&gt;UK=71&lt;span style=&quot;white-space: pre;&quot;&gt;&#x9;&lt;/span&gt;TR=28&lt;/div&gt;&lt;div&gt;Greece=49&lt;span style=&quot;white-space: pre;&quot;&gt;&#x9;&lt;/span&gt;Germany=40&lt;span style=&quot;white-space: pre;&quot;&gt;&#x9;&lt;/span&gt;Cyprus=20&lt;span style=&quot;white-space: pre;&quot;&gt;&#x9;&lt;/span&gt;Bulgaria=22&lt;br&gt;&lt;/div&gt;" style="html=1;dashed=0;whiteSpace=wrap;" parent="1" vertex="1">
          <mxGeometry x="200" y="60" width="400" height="40" as="geometry" />
        </mxCell>
        <mxCell id="xR32Q1sz5O_IzREnE2dy-27" style="edgeStyle=orthogonalEdgeStyle;rounded=0;orthogonalLoop=1;jettySize=auto;html=1;entryX=0.392;entryY=0.047;entryDx=0;entryDy=0;entryPerimeter=0;" parent="1" source="xR32Q1sz5O_IzREnE2dy-25" target="xR32Q1sz5O_IzREnE2dy-2" edge="1">
          <mxGeometry relative="1" as="geometry" />
        </mxCell>
        <mxCell id="xR32Q1sz5O_IzREnE2dy-28" value="ELbow ile küme sayısı belirleme" style="html=1;dashed=0;whiteSpace=wrap;" parent="1" vertex="1">
          <mxGeometry x="100" y="760" width="100" height="50" as="geometry" />
        </mxCell>
        <mxCell id="xR32Q1sz5O_IzREnE2dy-29" style="edgeStyle=orthogonalEdgeStyle;rounded=0;orthogonalLoop=1;jettySize=auto;html=1;entryX=0.178;entryY=0.017;entryDx=0;entryDy=0;entryPerimeter=0;" parent="1" source="xR32Q1sz5O_IzREnE2dy-28" target="xR32Q1sz5O_IzREnE2dy-12" edge="1">
          <mxGeometry relative="1" as="geometry" />
        </mxCell>
        <mxCell id="thV8qUcvfwIhAkpE8thV-5" style="edgeStyle=orthogonalEdgeStyle;rounded=0;orthogonalLoop=1;jettySize=auto;html=1;entryX=0.5;entryY=0;entryDx=0;entryDy=0;" edge="1" parent="1" source="thV8qUcvfwIhAkpE8thV-1" target="xR32Q1sz5O_IzREnE2dy-13">
          <mxGeometry relative="1" as="geometry">
            <Array as="points">
              <mxPoint x="750" y="410" />
              <mxPoint x="570" y="410" />
            </Array>
          </mxGeometry>
        </mxCell>
        <mxCell id="thV8qUcvfwIhAkpE8thV-1" value="T5" style="html=1;dashed=0;whiteSpace=wrap;" vertex="1" parent="1">
          <mxGeometry x="700" y="290" width="100" height="50" as="geometry" />
        </mxCell>
        <mxCell id="thV8qUcvfwIhAkpE8thV-6" style="edgeStyle=orthogonalEdgeStyle;rounded=0;orthogonalLoop=1;jettySize=auto;html=1;entryX=0.5;entryY=0;entryDx=0;entryDy=0;" edge="1" parent="1" source="thV8qUcvfwIhAkpE8thV-2" target="xR32Q1sz5O_IzREnE2dy-13">
          <mxGeometry relative="1" as="geometry">
            <Array as="points">
              <mxPoint x="100" y="410" />
              <mxPoint x="570" y="410" />
            </Array>
          </mxGeometry>
        </mxCell>
        <mxCell id="thV8qUcvfwIhAkpE8thV-7" style="edgeStyle=orthogonalEdgeStyle;rounded=0;orthogonalLoop=1;jettySize=auto;html=1;entryX=0.427;entryY=-0.05;entryDx=0;entryDy=0;entryPerimeter=0;" edge="1" parent="1" source="thV8qUcvfwIhAkpE8thV-2" target="xR32Q1sz5O_IzREnE2dy-12">
          <mxGeometry relative="1" as="geometry">
            <mxPoint x="350" y="610" as="targetPoint" />
            <Array as="points">
              <mxPoint x="100" y="460" />
              <mxPoint x="351" y="460" />
              <mxPoint x="351" y="708" />
            </Array>
          </mxGeometry>
        </mxCell>
        <mxCell id="thV8qUcvfwIhAkpE8thV-2" value="DistilBert" style="html=1;dashed=0;whiteSpace=wrap;" vertex="1" parent="1">
          <mxGeometry x="50" y="290" width="100" height="50" as="geometry" />
        </mxCell>
        <mxCell id="thV8qUcvfwIhAkpE8thV-8" style="edgeStyle=orthogonalEdgeStyle;rounded=0;orthogonalLoop=1;jettySize=auto;html=1;entryX=0.707;entryY=-0.025;entryDx=0;entryDy=0;entryPerimeter=0;" edge="1" parent="1" source="thV8qUcvfwIhAkpE8thV-1" target="xR32Q1sz5O_IzREnE2dy-12">
          <mxGeometry relative="1" as="geometry">
            <Array as="points">
              <mxPoint x="750" y="480" />
              <mxPoint x="391" y="480" />
            </Array>
          </mxGeometry>
        </mxCell>
        <mxCell id="thV8qUcvfwIhAkpE8thV-11" style="edgeStyle=orthogonalEdgeStyle;rounded=0;orthogonalLoop=1;jettySize=auto;html=1;entryX=1;entryY=0.5;entryDx=0;entryDy=0;" edge="1" parent="1" source="thV8qUcvfwIhAkpE8thV-10" target="xR32Q1sz5O_IzREnE2dy-12">
          <mxGeometry relative="1" as="geometry" />
        </mxCell>
        <mxCell id="thV8qUcvfwIhAkpE8thV-10" value="Silhouette Score&lt;br&gt;David-Bouldin Index&lt;br&gt;Calinski-Harabasz" style="html=1;dashed=0;whiteSpace=wrap;" vertex="1" parent="1">
          <mxGeometry x="500" y="760" width="150" height="50" as="geometry" />
        </mxCell>
        <mxCell id="thV8qUcvfwIhAkpE8thV-15" style="edgeStyle=orthogonalEdgeStyle;rounded=0;orthogonalLoop=1;jettySize=auto;html=1;entryX=0.5;entryY=0;entryDx=0;entryDy=0;" edge="1" parent="1" source="thV8qUcvfwIhAkpE8thV-12">
          <mxGeometry relative="1" as="geometry">
            <mxPoint x="370" y="945" as="targetPoint" />
          </mxGeometry>
        </mxCell>
        <mxCell id="thV8qUcvfwIhAkpE8thV-12" value="Support Vector Classifier" style="html=1;dashed=0;whiteSpace=wrap;" vertex="1" parent="1">
          <mxGeometry x="295" y="855" width="150" height="40" as="geometry" />
        </mxCell>
        <mxCell id="thV8qUcvfwIhAkpE8thV-14" style="edgeStyle=orthogonalEdgeStyle;rounded=0;orthogonalLoop=1;jettySize=auto;html=1;entryX=1;entryY=0.5;entryDx=0;entryDy=0;" edge="1" parent="1" source="thV8qUcvfwIhAkpE8thV-13" target="thV8qUcvfwIhAkpE8thV-12">
          <mxGeometry relative="1" as="geometry" />
        </mxCell>
        <mxCell id="thV8qUcvfwIhAkpE8thV-13" value="F1- Score&lt;br&gt;Accuracy&lt;br&gt;Recall&lt;br&gt;Confusion Matrix" style="html=1;dashed=0;whiteSpace=wrap;" vertex="1" parent="1">
          <mxGeometry x="500" y="842.5" width="150" height="65" as="geometry" />
        </mxCell>
        <mxCell id="thV8qUcvfwIhAkpE8thV-43" style="edgeStyle=orthogonalEdgeStyle;rounded=0;orthogonalLoop=1;jettySize=auto;html=1;entryX=0.5;entryY=0;entryDx=0;entryDy=0;" edge="1" parent="1" source="thV8qUcvfwIhAkpE8thV-16" target="thV8qUcvfwIhAkpE8thV-41">
          <mxGeometry relative="1" as="geometry" />
        </mxCell>
        <mxCell id="thV8qUcvfwIhAkpE8thV-16" value="En iyi sonuç&lt;br&gt; elde eden model" style="shape=trapezoid;perimeter=trapezoidPerimeter;whiteSpace=wrap;html=1;fixedSize=1;" vertex="1" parent="1">
          <mxGeometry x="290" y="945" width="170" height="60" as="geometry" />
        </mxCell>
        <mxCell id="thV8qUcvfwIhAkpE8thV-34" style="edgeStyle=orthogonalEdgeStyle;rounded=0;orthogonalLoop=1;jettySize=auto;html=1;entryX=0;entryY=0.5;entryDx=0;entryDy=0;" edge="1" parent="1" source="thV8qUcvfwIhAkpE8thV-17" target="thV8qUcvfwIhAkpE8thV-33">
          <mxGeometry relative="1" as="geometry" />
        </mxCell>
        <mxCell id="thV8qUcvfwIhAkpE8thV-54" style="edgeStyle=orthogonalEdgeStyle;rounded=0;orthogonalLoop=1;jettySize=auto;html=1;entryX=1;entryY=0.5;entryDx=0;entryDy=0;" edge="1" parent="1" source="thV8qUcvfwIhAkpE8thV-17" target="thV8qUcvfwIhAkpE8thV-53">
          <mxGeometry relative="1" as="geometry">
            <Array as="points">
              <mxPoint x="545" y="1170" />
            </Array>
          </mxGeometry>
        </mxCell>
        <mxCell id="thV8qUcvfwIhAkpE8thV-17" value="Kümelere ait &lt;br&gt;2-gram" style="whiteSpace=wrap;html=1;" vertex="1" parent="1">
          <mxGeometry x="485" y="1050" width="120" height="60" as="geometry" />
        </mxCell>
        <mxCell id="thV8qUcvfwIhAkpE8thV-38" style="edgeStyle=orthogonalEdgeStyle;rounded=0;orthogonalLoop=1;jettySize=auto;html=1;entryX=0;entryY=0;entryDx=0;entryDy=0;" edge="1" parent="1" source="thV8qUcvfwIhAkpE8thV-19" target="thV8qUcvfwIhAkpE8thV-36">
          <mxGeometry relative="1" as="geometry">
            <Array as="points">
              <mxPoint x="80" y="985" />
              <mxPoint x="80" y="1340" />
              <mxPoint x="343" y="1340" />
            </Array>
          </mxGeometry>
        </mxCell>
        <mxCell id="thV8qUcvfwIhAkpE8thV-19" value="Yeni cümleyi sınıflandır-kümele" style="shape=document;whiteSpace=wrap;html=1;boundedLbl=1;fillColor=#d5e8d4;strokeColor=#82b366;" vertex="1" parent="1">
          <mxGeometry x="130" y="945" width="120" height="80" as="geometry" />
        </mxCell>
        <mxCell id="thV8qUcvfwIhAkpE8thV-21" value="Vektör Boyut Azalt(PCA)" style="whiteSpace=wrap;html=1;dashed=0;" vertex="1" parent="1">
          <mxGeometry x="520" y="555" width="120" height="60" as="geometry" />
        </mxCell>
        <mxCell id="thV8qUcvfwIhAkpE8thV-26" style="edgeStyle=orthogonalEdgeStyle;rounded=0;orthogonalLoop=1;jettySize=auto;html=1;" edge="1" parent="1" source="thV8qUcvfwIhAkpE8thV-25">
          <mxGeometry relative="1" as="geometry">
            <mxPoint x="400" y="750" as="targetPoint" />
          </mxGeometry>
        </mxCell>
        <mxCell id="thV8qUcvfwIhAkpE8thV-25" value="Kayıp oranı&amp;lt;%2" style="rhombus;whiteSpace=wrap;html=1;" vertex="1" parent="1">
          <mxGeometry x="543.5" y="640" width="80" height="80" as="geometry" />
        </mxCell>
        <mxCell id="thV8qUcvfwIhAkpE8thV-27" style="edgeStyle=orthogonalEdgeStyle;rounded=0;orthogonalLoop=1;jettySize=auto;html=1;entryX=0.431;entryY=0.038;entryDx=0;entryDy=0;entryPerimeter=0;" edge="1" parent="1" source="thV8qUcvfwIhAkpE8thV-21" target="thV8qUcvfwIhAkpE8thV-25">
          <mxGeometry relative="1" as="geometry" />
        </mxCell>
        <mxCell id="thV8qUcvfwIhAkpE8thV-28" value="Evet" style="text;html=1;align=center;verticalAlign=middle;whiteSpace=wrap;rounded=0;" vertex="1" parent="1">
          <mxGeometry x="484" y="650" width="60" height="30" as="geometry" />
        </mxCell>
        <mxCell id="thV8qUcvfwIhAkpE8thV-30" style="edgeStyle=orthogonalEdgeStyle;rounded=0;orthogonalLoop=1;jettySize=auto;html=1;entryX=0;entryY=0.5;entryDx=0;entryDy=0;" edge="1" parent="1" source="thV8qUcvfwIhAkpE8thV-29" target="thV8qUcvfwIhAkpE8thV-12">
          <mxGeometry relative="1" as="geometry" />
        </mxCell>
        <mxCell id="thV8qUcvfwIhAkpE8thV-31" style="edgeStyle=orthogonalEdgeStyle;rounded=0;orthogonalLoop=1;jettySize=auto;html=1;entryX=0.75;entryY=0;entryDx=0;entryDy=0;" edge="1" parent="1" source="thV8qUcvfwIhAkpE8thV-29" target="thV8qUcvfwIhAkpE8thV-19">
          <mxGeometry relative="1" as="geometry">
            <Array as="points">
              <mxPoint x="180" y="945" />
            </Array>
          </mxGeometry>
        </mxCell>
        <mxCell id="thV8qUcvfwIhAkpE8thV-29" value="Modeli kaydet" style="rounded=0;whiteSpace=wrap;html=1;" vertex="1" parent="1">
          <mxGeometry x="120" y="857.5" width="120" height="35" as="geometry" />
        </mxCell>
        <mxCell id="thV8qUcvfwIhAkpE8thV-32" value="Anahtar kavramlara göre kümeleri anlamlandırma ve ülkelerin periyodik değişim akımları ve örnek bir partinin yıllar içindeki değişimi" style="rounded=0;whiteSpace=wrap;html=1;" vertex="1" parent="1">
          <mxGeometry x="110" y="1250" width="530" height="60" as="geometry" />
        </mxCell>
        <mxCell id="thV8qUcvfwIhAkpE8thV-33" value="Kümelere ait Kelime Bulutu" style="rounded=0;whiteSpace=wrap;html=1;" vertex="1" parent="1">
          <mxGeometry x="670" y="1050" width="120" height="60" as="geometry" />
        </mxCell>
        <mxCell id="thV8qUcvfwIhAkpE8thV-36" value="Son" style="ellipse;whiteSpace=wrap;html=1;" vertex="1" parent="1">
          <mxGeometry x="325" y="1360" width="120" height="80" as="geometry" />
        </mxCell>
        <mxCell id="thV8qUcvfwIhAkpE8thV-37" style="edgeStyle=orthogonalEdgeStyle;rounded=0;orthogonalLoop=1;jettySize=auto;html=1;entryX=0.408;entryY=0.05;entryDx=0;entryDy=0;entryPerimeter=0;" edge="1" parent="1" source="thV8qUcvfwIhAkpE8thV-32" target="thV8qUcvfwIhAkpE8thV-36">
          <mxGeometry relative="1" as="geometry" />
        </mxCell>
        <mxCell id="thV8qUcvfwIhAkpE8thV-40" style="edgeStyle=orthogonalEdgeStyle;rounded=0;orthogonalLoop=1;jettySize=auto;html=1;" edge="1" parent="1" source="thV8qUcvfwIhAkpE8thV-39" target="xR32Q1sz5O_IzREnE2dy-2">
          <mxGeometry relative="1" as="geometry">
            <Array as="points">
              <mxPoint x="440" y="140" />
            </Array>
          </mxGeometry>
        </mxCell>
        <mxCell id="thV8qUcvfwIhAkpE8thV-39" value="partyNames.txt" style="rounded=0;whiteSpace=wrap;html=1;" vertex="1" parent="1">
          <mxGeometry x="605" y="110" width="120" height="60" as="geometry" />
        </mxCell>
        <mxCell id="thV8qUcvfwIhAkpE8thV-42" style="edgeStyle=orthogonalEdgeStyle;rounded=0;orthogonalLoop=1;jettySize=auto;html=1;entryX=0;entryY=0.5;entryDx=0;entryDy=0;" edge="1" parent="1" source="thV8qUcvfwIhAkpE8thV-41" target="thV8qUcvfwIhAkpE8thV-17">
          <mxGeometry relative="1" as="geometry" />
        </mxCell>
        <mxCell id="thV8qUcvfwIhAkpE8thV-41" value="NLTK(İngilizce)&lt;br&gt;Stop words" style="rounded=0;whiteSpace=wrap;html=1;" vertex="1" parent="1">
          <mxGeometry x="310" y="1050" width="120" height="60" as="geometry" />
        </mxCell>
        <mxCell id="thV8qUcvfwIhAkpE8thV-45" value="" style="endArrow=none;dashed=1;html=1;dashPattern=1 3;strokeWidth=5;rounded=0;fillColor=#f8cecc;strokeColor=#b85450;" edge="1" parent="1">
          <mxGeometry width="50" height="50" relative="1" as="geometry">
            <mxPoint x="15" y="-110" as="sourcePoint" />
            <mxPoint x="805" y="-110" as="targetPoint" />
          </mxGeometry>
        </mxCell>
        <mxCell id="thV8qUcvfwIhAkpE8thV-47" value="" style="endArrow=none;dashed=1;html=1;dashPattern=1 3;strokeWidth=5;rounded=0;fillColor=#f8cecc;strokeColor=#b85450;" edge="1" parent="1">
          <mxGeometry width="50" height="50" relative="1" as="geometry">
            <mxPoint x="19" y="230" as="sourcePoint" />
            <mxPoint x="809" y="230" as="targetPoint" />
          </mxGeometry>
        </mxCell>
        <mxCell id="thV8qUcvfwIhAkpE8thV-48" value="" style="endArrow=none;dashed=1;html=1;dashPattern=1 3;strokeWidth=5;rounded=0;fillColor=#f8cecc;strokeColor=#b85450;" edge="1" parent="1">
          <mxGeometry width="50" height="50" relative="1" as="geometry">
            <mxPoint x="19" y="410" as="sourcePoint" />
            <mxPoint x="809" y="410" as="targetPoint" />
          </mxGeometry>
        </mxCell>
        <mxCell id="thV8qUcvfwIhAkpE8thV-49" value="" style="endArrow=none;dashed=1;html=1;dashPattern=1 3;strokeWidth=5;rounded=0;fillColor=#f8cecc;strokeColor=#b85450;" edge="1" parent="1">
          <mxGeometry width="50" height="50" relative="1" as="geometry">
            <mxPoint x="19" y="730" as="sourcePoint" />
            <mxPoint x="809" y="730" as="targetPoint" />
          </mxGeometry>
        </mxCell>
        <mxCell id="thV8qUcvfwIhAkpE8thV-50" value="" style="endArrow=none;dashed=1;html=1;dashPattern=1 3;strokeWidth=5;rounded=0;fillColor=#f8cecc;strokeColor=#b85450;" edge="1" parent="1">
          <mxGeometry width="50" height="50" relative="1" as="geometry">
            <mxPoint x="10" y="1040" as="sourcePoint" />
            <mxPoint x="800" y="1040" as="targetPoint" />
          </mxGeometry>
        </mxCell>
        <mxCell id="thV8qUcvfwIhAkpE8thV-52" value="" style="endArrow=none;dashed=1;html=1;dashPattern=1 3;strokeWidth=5;rounded=0;fillColor=#f8cecc;strokeColor=#b85450;" edge="1" parent="1">
          <mxGeometry width="50" height="50" relative="1" as="geometry">
            <mxPoint x="19" y="1450" as="sourcePoint" />
            <mxPoint x="809" y="1450" as="targetPoint" />
          </mxGeometry>
        </mxCell>
        <mxCell id="thV8qUcvfwIhAkpE8thV-55" style="edgeStyle=orthogonalEdgeStyle;rounded=0;orthogonalLoop=1;jettySize=auto;html=1;entryX=0.5;entryY=0;entryDx=0;entryDy=0;" edge="1" parent="1" source="thV8qUcvfwIhAkpE8thV-53" target="thV8qUcvfwIhAkpE8thV-32">
          <mxGeometry relative="1" as="geometry" />
        </mxCell>
        <mxCell id="thV8qUcvfwIhAkpE8thV-53" value="Kümelere ait 2-gram ların ilk 100 ünün ChatGPT modelinin 40-mini versiyonuna girdi olarak verilmesi ve elde edilen çıktıya göre kümelerin temalarının belirlenmesi" style="rounded=0;whiteSpace=wrap;html=1;" vertex="1" parent="1">
          <mxGeometry x="233" y="1140" width="274" height="60" as="geometry" />
        </mxCell>
        <mxCell id="thV8qUcvfwIhAkpE8thV-57" value="" style="endArrow=classic;startArrow=classic;html=1;rounded=0;strokeWidth=4;fillColor=#d5e8d4;strokeColor=#82b366;" edge="1" parent="1">
          <mxGeometry width="50" height="50" relative="1" as="geometry">
            <mxPoint x="20" y="230" as="sourcePoint" />
            <mxPoint x="20" y="-110" as="targetPoint" />
          </mxGeometry>
        </mxCell>
        <mxCell id="thV8qUcvfwIhAkpE8thV-58" value="" style="endArrow=classic;startArrow=classic;html=1;rounded=0;strokeWidth=4;fillColor=#d5e8d4;strokeColor=#82b366;" edge="1" parent="1">
          <mxGeometry width="50" height="50" relative="1" as="geometry">
            <mxPoint x="20" y="410" as="sourcePoint" />
            <mxPoint x="20" y="230" as="targetPoint" />
          </mxGeometry>
        </mxCell>
        <mxCell id="thV8qUcvfwIhAkpE8thV-59" value="" style="endArrow=classic;startArrow=classic;html=1;rounded=0;strokeWidth=4;fillColor=#d5e8d4;strokeColor=#82b366;" edge="1" parent="1">
          <mxGeometry width="50" height="50" relative="1" as="geometry">
            <mxPoint x="20" y="730" as="sourcePoint" />
            <mxPoint x="20" y="410" as="targetPoint" />
          </mxGeometry>
        </mxCell>
        <mxCell id="thV8qUcvfwIhAkpE8thV-60" value="" style="endArrow=classic;startArrow=classic;html=1;rounded=0;strokeWidth=4;fillColor=#d5e8d4;strokeColor=#82b366;" edge="1" parent="1">
          <mxGeometry width="50" height="50" relative="1" as="geometry">
            <mxPoint x="20" y="1040" as="sourcePoint" />
            <mxPoint x="20" y="730" as="targetPoint" />
          </mxGeometry>
        </mxCell>
        <mxCell id="thV8qUcvfwIhAkpE8thV-61" value="" style="endArrow=classic;startArrow=classic;html=1;rounded=0;strokeWidth=4;fillColor=#d5e8d4;strokeColor=#82b366;" edge="1" parent="1">
          <mxGeometry width="50" height="50" relative="1" as="geometry">
            <mxPoint x="20" y="1450" as="sourcePoint" />
            <mxPoint x="20" y="1040" as="targetPoint" />
          </mxGeometry>
        </mxCell>
        <mxCell id="thV8qUcvfwIhAkpE8thV-62" value="&lt;font style=&quot;font-size: 19px;&quot;&gt;&lt;b&gt;01&lt;/b&gt;&lt;/font&gt;" style="text;html=1;align=center;verticalAlign=middle;whiteSpace=wrap;rounded=0;fillColor=#fff2cc;strokeColor=#d6b656;" vertex="1" parent="1">
          <mxGeometry x="10" y="-90" width="60" height="30" as="geometry" />
        </mxCell>
        <mxCell id="thV8qUcvfwIhAkpE8thV-63" value="&lt;font style=&quot;font-size: 19px;&quot;&gt;&lt;b&gt;02&lt;/b&gt;&lt;/font&gt;" style="text;html=1;align=center;verticalAlign=middle;whiteSpace=wrap;rounded=0;fillColor=#fff2cc;strokeColor=#d6b656;" vertex="1" parent="1">
          <mxGeometry x="10" y="250" width="60" height="30" as="geometry" />
        </mxCell>
        <mxCell id="thV8qUcvfwIhAkpE8thV-64" value="&lt;font style=&quot;font-size: 19px;&quot;&gt;&lt;b&gt;03&lt;/b&gt;&lt;/font&gt;" style="text;html=1;align=center;verticalAlign=middle;whiteSpace=wrap;rounded=0;fillColor=#fff2cc;strokeColor=#d6b656;" vertex="1" parent="1">
          <mxGeometry x="10" y="430" width="60" height="30" as="geometry" />
        </mxCell>
        <mxCell id="thV8qUcvfwIhAkpE8thV-65" value="&lt;font style=&quot;font-size: 19px;&quot;&gt;&lt;b&gt;04&lt;/b&gt;&lt;/font&gt;" style="text;html=1;align=center;verticalAlign=middle;whiteSpace=wrap;rounded=0;fillColor=#fff2cc;strokeColor=#d6b656;" vertex="1" parent="1">
          <mxGeometry x="10" y="750" width="60" height="30" as="geometry" />
        </mxCell>
        <mxCell id="thV8qUcvfwIhAkpE8thV-66" value="&lt;font style=&quot;font-size: 19px;&quot;&gt;&lt;b&gt;05&lt;/b&gt;&lt;/font&gt;" style="text;html=1;align=center;verticalAlign=middle;whiteSpace=wrap;rounded=0;fillColor=#fff2cc;strokeColor=#d6b656;" vertex="1" parent="1">
          <mxGeometry x="10" y="1065" width="60" height="30" as="geometry" />
        </mxCell>
        <mxCell id="thV8qUcvfwIhAkpE8thV-69" style="edgeStyle=orthogonalEdgeStyle;rounded=0;orthogonalLoop=1;jettySize=auto;html=1;entryX=0.5;entryY=0;entryDx=0;entryDy=0;" edge="1" parent="1" source="thV8qUcvfwIhAkpE8thV-67" target="xR32Q1sz5O_IzREnE2dy-25">
          <mxGeometry relative="1" as="geometry" />
        </mxCell>
        <mxCell id="thV8qUcvfwIhAkpE8thV-67" value="Verilerin toplanılması&lt;br&gt;&lt;div&gt;(R Dili kullanılmıştır) &lt;/div&gt;" style="rounded=0;whiteSpace=wrap;html=1;" vertex="1" parent="1">
          <mxGeometry x="340" y="-10" width="120" height="40" as="geometry" />
        </mxCell>
      </root>
    </mxGraphModel>
  </diagram>
</mxfile>
